<?xml version="1.0" encoding="UTF-8" standalone="no"?>
<!DOCTYPE svg PUBLIC "-//W3C//DTD SVG 20010904//EN" "http://www.w3.org/TR/2001/REC-SVG-20010904/DTD/svg10.dtd">
<svg version="1.0" xmlns="http://www.w3.org/2000/svg" width="260.000000pt" height="260.000000pt" viewBox="0 0 260.000000 260.000000" preserveAspectRatio="xMidYMid meet">
<metadata>
Created by potrace 1.11, written by Peter Selinger 2001-2013
</metadata>
<g transform="translate(0.000000,260.000000) scale(0.100000,-0.100000)" fill="#000000" stroke="none">
<path d="M0 1300 l0 -1300 1300 0 1300 0 0 1300 0 1300 -1300 0 -1300 0 0 -1300z m1291 403 c171 -225 316 -412 320 -417 5 -6 9 109 9 257 l0 267 -75 0 -75 0 0 150 0 150 319 0 319 0 7 -112 c4 -62 5 -129 3 -148 l-3 -35 -77 -3 -78 -3 0 -664 0 -665 -140 0 -139 0 -54 68 c-29 37 -185 239 -346 450 -161 210 -294 382 -297 382 -2 0 -4 -133 -4 -295 l0 -295 75 0 75 0 0 -150 0 -150 -320 0 -320 0 0 145 0 145 75 0 75 0 0 515 0 515 -75 0 -75 0 0 150 0 150 244 0 245 0 312 -407z"/>
</g>
</svg>